{"title":"Thir13en Ghosts [2001]Dvdrip[ENG]-X-MEN","uid":6167446,"size":744151159,"categoryP":"video","categoryS":"movies","magnet":"?xt=urn:btih:56f205a9255d52dc6aa692f4129425cc80fff391&amp;dn=Thir13en+Ghosts+%5B2001%5DDvdrip%5BENG%5D-X-MEN&amp;tr=udp%3A%2F%2Ftracker.openbittorrent.com%3A80&amp;tr=udp%3A%2F%2Fopen.demonii.com%3A1337&amp;tr=udp%3A%2F%2Ftracker.coppersurfer.tk%3A6969&amp;tr=udp%3A%2F%2Fexodus.desync.com%3A6969","seeders":0,"leechers":0,"uploader":"harsha316","files":2,"time":1297437187,"description":"Format                           : AVI\nFormat/Info                      : Audio Video Interleave\nFile size                        : 710 MiB\nDuration                         : 1h 30mn\nOverall bit rate                 : 1 093 Kbps\nWriting application              : VirtualDubMod 1.5.4.1 (build 2178/release)\nWriting library                  : VirtualDubMod build 2178/release\n\nVideo\nID                               : 0\nFormat                           : MPEG-4 Visual\nFormat profile                   : Advanced Simple@L5\nFormat settings, BVOP            : 1\nFormat settings, QPel            : No\nFormat settings, GMC             : No warppoints\nFormat settings, Matrix          : Custom\nCodec ID                         : XVID\nCodec ID/Hint                    : XviD\nDuration                         : 1h 30mn\nBit rate                         : 961 Kbps\nWidth                            : 608 pixels\nHeight                           : 336 pixels\nDisplay aspect ratio             : 16:9\nFrame rate                       : 29.970 fps\nColor space                      : YUV\nChroma subsampling               : 4:2:0\nBit depth                        : 8 bits\nScan type                        : Progressive\nCompression mode                 : Lossy\nBits/(Pixel*Frame)               : 0.157\nStream size                      : 624 MiB (88%)\nWriting library                  : XviD 58\n\nAudio\nID                               : 1\nFormat                           : MPEG Audio\nFormat version                   : Version 1\nFormat profile                   : Layer 3\nMode                             : Joint stereo\nMode extension                   : MS Stereo\nCodec ID                         : 55\nCodec ID/Hint                    : MP3\nDuration                         : 1h 30mn\nBit rate mode                    : Variable\nBit rate                         : 117 Kbps\nNominal bit rate                 : 128 Kbps\nChannel(s)                       : 2 channels\nSampling rate                    : 48.0 KHz\nCompression mode                 : Lossy\nStream size                      : 76.2 MiB (11%)\nAlignment                        : Aligned on interleaves\nInterleave, duration             : 24 ms (0.72 video frame)\nInterleave, preload duration     : 157 ms\n\n\nPLEASE DONT FORGET TO SEED....!!!!!!!!","torrent":{"xt":"urn:btih:56f205a9255d52dc6aa692f4129425cc80fff391","amp;dn":"Thir13en+Ghosts+%5B2001%5DDvdrip%5BENG%5D-X-MEN","amp;tr":["udp%3A%2F%2Ftracker.openbittorrent.com%3A80","udp%3A%2F%2Fopen.demonii.com%3A1337","udp%3A%2F%2Ftracker.coppersurfer.tk%3A6969","udp%3A%2F%2Fexodus.desync.com%3A6969"],"infoHash":"56f205a9255d52dc6aa692f4129425cc80fff391","infoHashBuffer":{"type":"Buffer","data":[86,242,5,169,37,93,82,220,106,166,146,244,18,148,37,204,128,255,243,145]},"announce":[],"urlList":[]}}